<svg xmlns="http://www.w3.org/2000/svg" xmlns:xlink="http://www.w3.org/1999/xlink" width="500" zoomAndPan="magnify" viewBox="0 0 375 374.999991" height="500" preserveAspectRatio="xMidYMid meet" version="1.0"><defs><g/><clipPath id="00ff982fbd"><path d="M 0 0 L 275.25 0 L 275.25 374.886719 L 0 374.886719 Z M 0 0 " clip-rule="nonzero"/></clipPath></defs><rect x="-37.5" width="450" fill="#ffffff" y="-37.499999" height="449.999989" fill-opacity="1"/><rect x="-37.5" width="450" fill="#191919" y="-37.499999" height="449.999989" fill-opacity="1"/><g clip-path="url(#00ff982fbd)"><path fill="#990000" d="M 0 0 L 275.25 0 L 100.183594 374.777344 L 0 374.777344 Z M 0 0 " fill-opacity="1" fill-rule="nonzero"/></g><g fill="#f5f5f5" fill-opacity="1"><g transform="translate(105.738278, 224.999985)"><g><path d="M 32.15625 0 C 32.15625 0 32.726562 0 33.875 0 C 35.019531 0 36.617188 0 38.671875 0 C 40.722656 0 43.109375 0 45.828125 0 C 48.554688 0 51.503906 0 54.671875 0 C 57.847656 0 61.140625 0 64.546875 0 C 67.953125 0 71.359375 0 74.765625 0 C 78.171875 0 81.457031 0 84.625 0 C 87.800781 0 90.75 0 93.46875 0 C 96.195312 0 98.585938 0 100.640625 0 C 102.691406 0 104.289062 0 105.4375 0 C 106.582031 0 107.15625 0 107.15625 0 C 107.15625 0 107.203125 -0.109375 107.296875 -0.328125 C 107.398438 -0.546875 107.515625 -0.796875 107.640625 -1.078125 C 107.773438 -1.359375 107.890625 -1.609375 107.984375 -1.828125 C 108.085938 -2.046875 108.140625 -2.15625 108.140625 -2.15625 C 108.140625 -2.15625 108.351562 -2.15625 108.78125 -2.15625 C 109.207031 -2.15625 109.707031 -2.15625 110.28125 -2.15625 C 110.851562 -2.15625 111.351562 -2.15625 111.78125 -2.15625 C 112.207031 -2.15625 112.421875 -2.15625 112.421875 -2.15625 C 112.421875 -2.15625 112.503906 -2.332031 112.671875 -2.6875 C 112.847656 -3.039062 113.015625 -3.394531 113.171875 -3.75 C 113.335938 -4.101562 113.421875 -4.28125 113.421875 -4.28125 C 113.421875 -4.28125 113.632812 -4.28125 114.0625 -4.28125 C 114.488281 -4.28125 114.988281 -4.28125 115.5625 -4.28125 C 116.132812 -4.28125 116.632812 -4.28125 117.0625 -4.28125 C 117.488281 -4.28125 117.703125 -4.28125 117.703125 -4.28125 C 117.703125 -4.28125 117.75 -4.390625 117.84375 -4.609375 C 117.945312 -4.828125 118.070312 -5.078125 118.21875 -5.359375 C 118.363281 -5.640625 118.484375 -5.890625 118.578125 -6.109375 C 118.671875 -6.335938 118.71875 -6.453125 118.71875 -6.453125 C 118.71875 -6.453125 118.929688 -6.453125 119.359375 -6.453125 C 119.785156 -6.453125 120.285156 -6.453125 120.859375 -6.453125 C 121.441406 -6.453125 121.945312 -6.453125 122.375 -6.453125 C 122.800781 -6.453125 123.015625 -6.453125 123.015625 -6.453125 C 123.015625 -6.453125 123.097656 -6.625 123.265625 -6.96875 C 123.429688 -7.320312 123.59375 -7.675781 123.75 -8.03125 C 123.914062 -8.382812 124 -8.5625 124 -8.5625 C 124 -8.5625 124.210938 -8.5625 124.640625 -8.5625 C 125.066406 -8.5625 125.566406 -8.5625 126.140625 -8.5625 C 126.710938 -8.5625 127.210938 -8.5625 127.640625 -8.5625 C 128.066406 -8.5625 128.28125 -8.5625 128.28125 -8.5625 C 128.28125 -8.5625 128.328125 -8.671875 128.421875 -8.890625 C 128.523438 -9.117188 128.644531 -9.375 128.78125 -9.65625 C 128.914062 -9.9375 129.03125 -10.1875 129.125 -10.40625 C 129.21875 -10.625 129.265625 -10.734375 129.265625 -10.734375 C 129.265625 -10.734375 129.476562 -10.734375 129.90625 -10.734375 C 130.332031 -10.734375 130.832031 -10.734375 131.40625 -10.734375 C 131.988281 -10.734375 132.492188 -10.734375 132.921875 -10.734375 C 133.347656 -10.734375 133.5625 -10.734375 133.5625 -10.734375 C 133.5625 -10.734375 133.742188 -11.113281 134.109375 -11.875 C 134.472656 -12.644531 134.945312 -13.671875 135.53125 -14.953125 C 136.113281 -16.234375 136.765625 -17.632812 137.484375 -19.15625 C 138.210938 -20.6875 138.929688 -22.207031 139.640625 -23.71875 C 140.347656 -25.238281 140.992188 -26.640625 141.578125 -27.921875 C 142.160156 -29.203125 142.632812 -30.226562 143 -31 C 143.375 -31.769531 143.5625 -32.15625 143.5625 -32.15625 C 143.5625 -32.15625 143.382812 -32.15625 143.03125 -32.15625 C 142.675781 -32.15625 142.320312 -32.15625 141.96875 -32.15625 C 141.613281 -32.15625 141.4375 -32.15625 141.4375 -32.15625 C 141.4375 -32.15625 141.519531 -32.332031 141.6875 -32.6875 C 141.851562 -33.039062 142.015625 -33.394531 142.171875 -33.75 C 142.335938 -34.101562 142.421875 -34.28125 142.421875 -34.28125 C 142.421875 -34.28125 142.242188 -34.28125 141.890625 -34.28125 C 141.535156 -34.28125 141.175781 -34.28125 140.8125 -34.28125 C 140.445312 -34.28125 140.265625 -34.28125 140.265625 -34.28125 C 140.265625 -34.28125 140.3125 -34.390625 140.40625 -34.609375 C 140.5 -34.828125 140.617188 -35.078125 140.765625 -35.359375 C 140.910156 -35.640625 141.03125 -35.890625 141.125 -36.109375 C 141.226562 -36.328125 141.28125 -36.4375 141.28125 -36.4375 C 141.28125 -36.4375 141.101562 -36.4375 140.75 -36.4375 C 140.394531 -36.4375 140.035156 -36.4375 139.671875 -36.4375 C 139.304688 -36.4375 139.125 -36.4375 139.125 -36.4375 C 139.125 -36.4375 139.207031 -36.613281 139.375 -36.96875 C 139.550781 -37.320312 139.71875 -37.675781 139.875 -38.03125 C 140.03125 -38.382812 140.109375 -38.5625 140.109375 -38.5625 C 140.109375 -38.5625 139.929688 -38.5625 139.578125 -38.5625 C 139.222656 -38.5625 138.867188 -38.5625 138.515625 -38.5625 C 138.160156 -38.5625 137.984375 -38.5625 137.984375 -38.5625 C 137.984375 -38.5625 138.03125 -38.671875 138.125 -38.890625 C 138.226562 -39.109375 138.347656 -39.359375 138.484375 -39.640625 C 138.617188 -39.921875 138.734375 -40.171875 138.828125 -40.390625 C 138.929688 -40.609375 138.984375 -40.71875 138.984375 -40.71875 C 138.984375 -40.71875 138.804688 -40.71875 138.453125 -40.71875 C 138.097656 -40.71875 137.742188 -40.71875 137.390625 -40.71875 C 137.035156 -40.71875 136.859375 -40.71875 136.859375 -40.71875 C 136.859375 -40.71875 136.941406 -40.894531 137.109375 -41.25 C 137.273438 -41.601562 137.4375 -41.957031 137.59375 -42.3125 C 137.757812 -42.664062 137.84375 -42.84375 137.84375 -42.84375 C 137.84375 -42.84375 137.429688 -42.84375 136.609375 -42.84375 C 135.796875 -42.84375 134.679688 -42.84375 133.265625 -42.84375 C 131.847656 -42.84375 130.226562 -42.84375 128.40625 -42.84375 C 126.59375 -42.84375 124.675781 -42.84375 122.65625 -42.84375 C 120.644531 -42.84375 118.625 -42.84375 116.59375 -42.84375 C 114.570312 -42.84375 112.648438 -42.84375 110.828125 -42.84375 C 109.015625 -42.84375 107.398438 -42.84375 105.984375 -42.84375 C 104.566406 -42.84375 103.445312 -42.84375 102.625 -42.84375 C 101.8125 -42.84375 101.40625 -42.84375 101.40625 -42.84375 C 101.40625 -42.84375 101.453125 -42.953125 101.546875 -43.171875 C 101.648438 -43.390625 101.773438 -43.640625 101.921875 -43.921875 C 102.066406 -44.203125 102.1875 -44.453125 102.28125 -44.671875 C 102.375 -44.890625 102.421875 -45 102.421875 -45 C 102.421875 -45 102.242188 -45 101.890625 -45 C 101.546875 -45 101.1875 -45 100.8125 -45 C 100.445312 -45 100.265625 -45 100.265625 -45 C 100.265625 -45 100.347656 -45.175781 100.515625 -45.53125 C 100.691406 -45.882812 100.859375 -46.238281 101.015625 -46.59375 C 101.171875 -46.945312 101.25 -47.125 101.25 -47.125 C 101.25 -47.125 101.035156 -47.125 100.609375 -47.125 C 100.179688 -47.125 99.679688 -47.125 99.109375 -47.125 C 98.535156 -47.125 98.035156 -47.125 97.609375 -47.125 C 97.179688 -47.125 96.96875 -47.125 96.96875 -47.125 C 96.96875 -47.125 97.015625 -47.234375 97.109375 -47.453125 C 97.210938 -47.679688 97.335938 -47.9375 97.484375 -48.21875 C 97.628906 -48.5 97.75 -48.75 97.84375 -48.96875 C 97.945312 -49.1875 98 -49.296875 98 -49.296875 C 98 -49.296875 98.210938 -49.296875 98.640625 -49.296875 C 99.066406 -49.296875 99.566406 -49.296875 100.140625 -49.296875 C 100.710938 -49.296875 101.210938 -49.296875 101.640625 -49.296875 C 102.066406 -49.296875 102.28125 -49.296875 102.28125 -49.296875 C 102.28125 -49.296875 102.363281 -49.472656 102.53125 -49.828125 C 102.707031 -50.179688 102.875 -50.535156 103.03125 -50.890625 C 103.1875 -51.242188 103.265625 -51.421875 103.265625 -51.421875 C 103.265625 -51.421875 103.441406 -51.421875 103.796875 -51.421875 C 104.148438 -51.421875 104.503906 -51.421875 104.859375 -51.421875 C 105.210938 -51.421875 105.390625 -51.421875 105.390625 -51.421875 C 105.390625 -51.421875 105.4375 -51.53125 105.53125 -51.75 C 105.632812 -51.96875 105.757812 -52.21875 105.90625 -52.5 C 106.050781 -52.78125 106.171875 -53.03125 106.265625 -53.25 C 106.367188 -53.46875 106.421875 -53.578125 106.421875 -53.578125 C 106.421875 -53.578125 106.828125 -53.578125 107.640625 -53.578125 C 108.460938 -53.578125 109.582031 -53.578125 111 -53.578125 C 112.414062 -53.578125 114.03125 -53.578125 115.84375 -53.578125 C 117.664062 -53.578125 119.582031 -53.578125 121.59375 -53.578125 C 123.613281 -53.578125 125.628906 -53.578125 127.640625 -53.578125 C 129.660156 -53.578125 131.578125 -53.578125 133.390625 -53.578125 C 135.210938 -53.578125 136.832031 -53.578125 138.25 -53.578125 C 139.664062 -53.578125 140.78125 -53.578125 141.59375 -53.578125 C 142.414062 -53.578125 142.828125 -53.578125 142.828125 -53.578125 C 142.828125 -53.578125 142.875 -53.6875 142.96875 -53.90625 C 143.0625 -54.125 143.179688 -54.367188 143.328125 -54.640625 C 143.484375 -54.910156 143.609375 -55.15625 143.703125 -55.375 C 143.796875 -55.59375 143.84375 -55.703125 143.84375 -55.703125 C 143.84375 -55.703125 144.019531 -55.703125 144.375 -55.703125 C 144.726562 -55.703125 145.082031 -55.703125 145.4375 -55.703125 C 145.789062 -55.703125 145.96875 -55.703125 145.96875 -55.703125 C 145.96875 -55.703125 146.015625 -55.8125 146.109375 -56.03125 C 146.210938 -56.25 146.335938 -56.5 146.484375 -56.78125 C 146.628906 -57.0625 146.75 -57.3125 146.84375 -57.53125 C 146.945312 -57.75 147 -57.859375 147 -57.859375 C 147 -57.859375 147.175781 -57.859375 147.53125 -57.859375 C 147.882812 -57.859375 148.238281 -57.859375 148.59375 -57.859375 C 148.945312 -57.859375 149.125 -57.859375 149.125 -57.859375 C 149.125 -57.859375 149.207031 -58.035156 149.375 -58.390625 C 149.550781 -58.742188 149.71875 -59.097656 149.875 -59.453125 C 150.03125 -59.804688 150.109375 -59.984375 150.109375 -59.984375 C 150.109375 -59.984375 150.289062 -59.984375 150.65625 -59.984375 C 151.019531 -59.984375 151.378906 -59.984375 151.734375 -59.984375 C 152.085938 -59.984375 152.265625 -59.984375 152.265625 -59.984375 C 152.265625 -59.984375 152.3125 -60.09375 152.40625 -60.3125 C 152.507812 -60.53125 152.628906 -60.78125 152.765625 -61.0625 C 152.898438 -61.34375 153.015625 -61.59375 153.109375 -61.8125 C 153.210938 -62.03125 153.265625 -62.140625 153.265625 -62.140625 C 153.265625 -62.140625 153.445312 -62.140625 153.8125 -62.140625 C 154.175781 -62.140625 154.535156 -62.140625 154.890625 -62.140625 C 155.242188 -62.140625 155.421875 -62.140625 155.421875 -62.140625 C 155.421875 -62.140625 155.503906 -62.316406 155.671875 -62.671875 C 155.847656 -63.023438 156.015625 -63.378906 156.171875 -63.734375 C 156.328125 -64.085938 156.40625 -64.265625 156.40625 -64.265625 C 156.40625 -64.265625 156.582031 -64.265625 156.9375 -64.265625 C 157.289062 -64.265625 157.644531 -64.265625 158 -64.265625 C 158.351562 -64.265625 158.53125 -64.265625 158.53125 -64.265625 C 158.53125 -64.265625 158.648438 -64.519531 158.890625 -65.03125 C 159.140625 -65.550781 159.453125 -66.21875 159.828125 -67.03125 C 160.210938 -67.851562 160.617188 -68.722656 161.046875 -69.640625 C 161.472656 -70.554688 161.875 -71.421875 162.25 -72.234375 C 162.625 -73.054688 162.929688 -73.722656 163.171875 -74.234375 C 163.421875 -74.742188 163.546875 -75 163.546875 -75 C 163.546875 -75 163.0625 -75 162.09375 -75 C 161.132812 -75 159.820312 -75 158.15625 -75 C 156.5 -75 154.597656 -75 152.453125 -75 C 150.304688 -75 148.046875 -75 145.671875 -75 C 143.304688 -75 140.9375 -75 138.5625 -75 C 136.195312 -75 133.941406 -75 131.796875 -75 C 129.648438 -75 127.742188 -75 126.078125 -75 C 124.421875 -75 123.109375 -75 122.140625 -75 C 121.179688 -75 120.703125 -75 120.703125 -75 C 120.703125 -75 120.578125 -74.742188 120.328125 -74.234375 C 120.085938 -73.722656 119.773438 -73.054688 119.390625 -72.234375 C 119.015625 -71.421875 118.613281 -70.554688 118.1875 -69.640625 C 117.757812 -68.722656 117.359375 -67.851562 116.984375 -67.03125 C 116.609375 -66.21875 116.296875 -65.550781 116.046875 -65.03125 C 115.804688 -64.519531 115.6875 -64.265625 115.6875 -64.265625 C 115.6875 -64.265625 115.425781 -64.265625 114.90625 -64.265625 C 114.394531 -64.265625 113.726562 -64.265625 112.90625 -64.265625 C 112.09375 -64.265625 111.234375 -64.265625 110.328125 -64.265625 C 109.429688 -64.265625 108.570312 -64.265625 107.75 -64.265625 C 106.9375 -64.265625 106.273438 -64.265625 105.765625 -64.265625 C 105.253906 -64.265625 105 -64.265625 105 -64.265625 C 105 -64.265625 104.875 -64.007812 104.625 -63.5 C 104.382812 -62.988281 104.070312 -62.320312 103.6875 -61.5 C 103.3125 -60.6875 102.910156 -59.828125 102.484375 -58.921875 C 102.054688 -58.015625 101.648438 -57.148438 101.265625 -56.328125 C 100.890625 -55.515625 100.578125 -54.851562 100.328125 -54.34375 C 100.085938 -53.832031 99.96875 -53.578125 99.96875 -53.578125 C 99.96875 -53.578125 99.515625 -53.578125 98.609375 -53.578125 C 97.710938 -53.578125 96.5 -53.578125 94.96875 -53.578125 C 93.445312 -53.578125 91.726562 -53.578125 89.8125 -53.578125 C 87.894531 -53.578125 85.921875 -53.578125 83.890625 -53.578125 C 81.867188 -53.578125 79.898438 -53.578125 77.984375 -53.578125 C 76.066406 -53.578125 74.34375 -53.578125 72.8125 -53.578125 C 71.289062 -53.578125 70.078125 -53.578125 69.171875 -53.578125 C 68.273438 -53.578125 67.828125 -53.578125 67.828125 -53.578125 C 67.828125 -53.578125 67.703125 -53.316406 67.453125 -52.796875 C 67.210938 -52.285156 66.898438 -51.617188 66.515625 -50.796875 C 66.140625 -49.984375 65.742188 -49.117188 65.328125 -48.203125 C 64.910156 -47.296875 64.515625 -46.429688 64.140625 -45.609375 C 63.765625 -44.796875 63.453125 -44.128906 63.203125 -43.609375 C 62.960938 -43.097656 62.84375 -42.84375 62.84375 -42.84375 C 62.84375 -42.84375 63.054688 -42.84375 63.484375 -42.84375 C 63.910156 -42.84375 64.410156 -42.84375 64.984375 -42.84375 C 65.554688 -42.84375 66.054688 -42.84375 66.484375 -42.84375 C 66.910156 -42.84375 67.125 -42.84375 67.125 -42.84375 C 67.125 -42.84375 67.046875 -42.664062 66.890625 -42.3125 C 66.734375 -41.957031 66.566406 -41.601562 66.390625 -41.25 C 66.222656 -40.894531 66.140625 -40.71875 66.140625 -40.71875 C 66.140625 -40.71875 66.351562 -40.71875 66.78125 -40.71875 C 67.207031 -40.71875 67.707031 -40.71875 68.28125 -40.71875 C 68.851562 -40.71875 69.351562 -40.71875 69.78125 -40.71875 C 70.207031 -40.71875 70.421875 -40.71875 70.421875 -40.71875 C 70.421875 -40.71875 70.367188 -40.609375 70.265625 -40.390625 C 70.171875 -40.171875 70.054688 -39.921875 69.921875 -39.640625 C 69.796875 -39.359375 69.679688 -39.109375 69.578125 -38.890625 C 69.484375 -38.671875 69.4375 -38.5625 69.4375 -38.5625 C 69.4375 -38.5625 69.648438 -38.5625 70.078125 -38.5625 C 70.503906 -38.5625 71.003906 -38.5625 71.578125 -38.5625 C 72.148438 -38.5625 72.648438 -38.5625 73.078125 -38.5625 C 73.503906 -38.5625 73.71875 -38.5625 73.71875 -38.5625 C 73.71875 -38.5625 73.664062 -38.453125 73.5625 -38.234375 C 73.46875 -38.015625 73.347656 -37.769531 73.203125 -37.5 C 73.054688 -37.226562 72.929688 -36.984375 72.828125 -36.765625 C 72.734375 -36.546875 72.6875 -36.4375 72.6875 -36.4375 C 72.6875 -36.4375 72.898438 -36.4375 73.328125 -36.4375 C 73.753906 -36.4375 74.253906 -36.4375 74.828125 -36.4375 C 75.410156 -36.4375 75.914062 -36.4375 76.34375 -36.4375 C 76.769531 -36.4375 76.984375 -36.4375 76.984375 -36.4375 C 76.984375 -36.4375 76.929688 -36.328125 76.828125 -36.109375 C 76.734375 -35.890625 76.617188 -35.640625 76.484375 -35.359375 C 76.347656 -35.078125 76.226562 -34.828125 76.125 -34.609375 C 76.03125 -34.390625 75.984375 -34.28125 75.984375 -34.28125 C 75.984375 -34.28125 76.195312 -34.28125 76.625 -34.28125 C 77.050781 -34.28125 77.550781 -34.28125 78.125 -34.28125 C 78.695312 -34.28125 79.195312 -34.28125 79.625 -34.28125 C 80.0625 -34.28125 80.28125 -34.28125 80.28125 -34.28125 C 80.28125 -34.28125 80.195312 -34.101562 80.03125 -33.75 C 79.875 -33.394531 79.707031 -33.039062 79.53125 -32.6875 C 79.363281 -32.332031 79.28125 -32.15625 79.28125 -32.15625 C 79.28125 -32.15625 79.6875 -32.15625 80.5 -32.15625 C 81.320312 -32.15625 82.441406 -32.15625 83.859375 -32.15625 C 85.273438 -32.15625 86.890625 -32.15625 88.703125 -32.15625 C 90.523438 -32.15625 92.441406 -32.15625 94.453125 -32.15625 C 96.472656 -32.15625 98.488281 -32.15625 100.5 -32.15625 C 102.519531 -32.15625 104.4375 -32.15625 106.25 -32.15625 C 108.070312 -32.15625 109.691406 -32.15625 111.109375 -32.15625 C 112.523438 -32.15625 113.640625 -32.15625 114.453125 -32.15625 C 115.273438 -32.15625 115.6875 -32.15625 115.6875 -32.15625 C 115.6875 -32.15625 115.632812 -32.046875 115.53125 -31.828125 C 115.4375 -31.609375 115.320312 -31.359375 115.1875 -31.078125 C 115.050781 -30.796875 114.9375 -30.546875 114.84375 -30.328125 C 114.75 -30.109375 114.703125 -30 114.703125 -30 C 114.703125 -30 114.882812 -30 115.25 -30 C 115.613281 -30 115.972656 -30 116.328125 -30 C 116.679688 -30 116.859375 -30 116.859375 -30 C 116.859375 -30 116.804688 -29.882812 116.703125 -29.65625 C 116.609375 -29.4375 116.488281 -29.191406 116.34375 -28.921875 C 116.195312 -28.660156 116.070312 -28.421875 115.96875 -28.203125 C 115.875 -27.984375 115.828125 -27.875 115.828125 -27.875 C 115.828125 -27.875 116.039062 -27.875 116.46875 -27.875 C 116.894531 -27.875 117.394531 -27.875 117.96875 -27.875 C 118.539062 -27.875 119.039062 -27.875 119.46875 -27.875 C 119.90625 -27.875 120.125 -27.875 120.125 -27.875 C 120.125 -27.875 120.070312 -27.757812 119.96875 -27.53125 C 119.875 -27.3125 119.757812 -27.0625 119.625 -26.78125 C 119.488281 -26.507812 119.367188 -26.257812 119.265625 -26.03125 C 119.171875 -25.8125 119.125 -25.703125 119.125 -25.703125 C 119.125 -25.703125 118.910156 -25.703125 118.484375 -25.703125 C 118.054688 -25.703125 117.554688 -25.703125 116.984375 -25.703125 C 116.410156 -25.703125 115.910156 -25.703125 115.484375 -25.703125 C 115.054688 -25.703125 114.84375 -25.703125 114.84375 -25.703125 C 114.84375 -25.703125 114.765625 -25.523438 114.609375 -25.171875 C 114.453125 -24.816406 114.285156 -24.460938 114.109375 -24.109375 C 113.941406 -23.753906 113.859375 -23.578125 113.859375 -23.578125 C 113.859375 -23.578125 113.679688 -23.578125 113.328125 -23.578125 C 112.972656 -23.578125 112.609375 -23.578125 112.234375 -23.578125 C 111.867188 -23.578125 111.6875 -23.578125 111.6875 -23.578125 C 111.6875 -23.578125 111.640625 -23.46875 111.546875 -23.25 C 111.453125 -23.03125 111.335938 -22.78125 111.203125 -22.5 C 111.066406 -22.21875 110.945312 -21.96875 110.84375 -21.75 C 110.75 -21.53125 110.703125 -21.421875 110.703125 -21.421875 C 110.703125 -21.421875 110.171875 -21.421875 109.109375 -21.421875 C 108.046875 -21.421875 106.570312 -21.421875 104.6875 -21.421875 C 102.8125 -21.421875 100.65625 -21.421875 98.21875 -21.421875 C 95.78125 -21.421875 93.15625 -21.421875 90.34375 -21.421875 C 87.539062 -21.421875 84.6875 -21.421875 81.78125 -21.421875 C 78.875 -21.421875 76.015625 -21.421875 73.203125 -21.421875 C 70.398438 -21.421875 67.773438 -21.421875 65.328125 -21.421875 C 62.890625 -21.421875 60.726562 -21.421875 58.84375 -21.421875 C 56.96875 -21.421875 55.5 -21.421875 54.4375 -21.421875 C 53.375 -21.421875 52.84375 -21.421875 52.84375 -21.421875 C 52.84375 -21.421875 52.71875 -21.164062 52.46875 -20.65625 C 52.226562 -20.144531 51.921875 -19.476562 51.546875 -18.65625 C 51.171875 -17.84375 50.773438 -16.984375 50.359375 -16.078125 C 49.941406 -15.171875 49.539062 -14.304688 49.15625 -13.484375 C 48.78125 -12.671875 48.46875 -12.007812 48.21875 -11.5 C 47.976562 -10.988281 47.859375 -10.734375 47.859375 -10.734375 C 47.859375 -10.734375 47.601562 -10.734375 47.09375 -10.734375 C 46.582031 -10.734375 45.914062 -10.734375 45.09375 -10.734375 C 44.28125 -10.734375 43.414062 -10.734375 42.5 -10.734375 C 41.582031 -10.734375 40.710938 -10.734375 39.890625 -10.734375 C 39.078125 -10.734375 38.414062 -10.734375 37.90625 -10.734375 C 37.394531 -10.734375 37.140625 -10.734375 37.140625 -10.734375 C 37.140625 -10.734375 37.015625 -10.472656 36.765625 -9.953125 C 36.523438 -9.441406 36.210938 -8.773438 35.828125 -7.953125 C 35.453125 -7.140625 35.054688 -6.273438 34.640625 -5.359375 C 34.222656 -4.441406 33.828125 -3.570312 33.453125 -2.75 C 33.078125 -1.9375 32.765625 -1.273438 32.515625 -0.765625 C 32.273438 -0.253906 32.15625 0 32.15625 0 Z M 0 0 C 0 0 0.253906 0 0.765625 0 C 1.273438 0 1.9375 0 2.75 0 C 3.570312 0 4.441406 0 5.359375 0 C 6.273438 0 7.140625 0 7.953125 0 C 8.773438 0 9.441406 0 9.953125 0 C 10.472656 0 10.734375 0 10.734375 0 C 10.734375 0 10.828125 -0.207031 11.015625 -0.625 C 11.210938 -1.039062 11.460938 -1.570312 11.765625 -2.21875 C 12.078125 -2.863281 12.394531 -3.550781 12.71875 -4.28125 C 13.050781 -5.019531 13.367188 -5.710938 13.671875 -6.359375 C 13.984375 -7.003906 14.234375 -7.53125 14.421875 -7.9375 C 14.617188 -8.351562 14.71875 -8.5625 14.71875 -8.5625 C 14.71875 -8.5625 14.539062 -8.5625 14.1875 -8.5625 C 13.832031 -8.5625 13.472656 -8.5625 13.109375 -8.5625 C 12.742188 -8.5625 12.5625 -8.5625 12.5625 -8.5625 C 12.5625 -8.5625 12.609375 -8.671875 12.703125 -8.890625 C 12.804688 -9.117188 12.929688 -9.375 13.078125 -9.65625 C 13.222656 -9.9375 13.34375 -10.1875 13.4375 -10.40625 C 13.539062 -10.625 13.59375 -10.734375 13.59375 -10.734375 C 13.59375 -10.734375 13.300781 -10.734375 12.71875 -10.734375 C 12.144531 -10.734375 11.429688 -10.734375 10.578125 -10.734375 C 9.722656 -10.734375 8.863281 -10.734375 8 -10.734375 C 7.132812 -10.734375 6.414062 -10.734375 5.84375 -10.734375 C 5.269531 -10.734375 4.984375 -10.734375 4.984375 -10.734375 C 4.984375 -10.734375 4.859375 -10.472656 4.609375 -9.953125 C 4.367188 -9.441406 4.054688 -8.773438 3.671875 -7.953125 C 3.296875 -7.140625 2.898438 -6.273438 2.484375 -5.359375 C 2.078125 -4.441406 1.679688 -3.570312 1.296875 -2.75 C 0.921875 -1.9375 0.609375 -1.273438 0.359375 -0.765625 C 0.117188 -0.253906 0 0 0 0 Z M 8.421875 -4.28125 C 8.421875 -4.28125 8.207031 -4.28125 7.78125 -4.28125 C 7.351562 -4.28125 6.851562 -4.28125 6.28125 -4.28125 C 5.707031 -4.28125 5.207031 -4.28125 4.78125 -4.28125 C 4.351562 -4.28125 4.140625 -4.28125 4.140625 -4.28125 C 4.140625 -4.28125 4.1875 -4.390625 4.28125 -4.609375 C 4.382812 -4.828125 4.5 -5.078125 4.625 -5.359375 C 4.757812 -5.640625 4.875 -5.890625 4.96875 -6.109375 C 5.070312 -6.335938 5.125 -6.453125 5.125 -6.453125 C 5.125 -6.453125 5.335938 -6.453125 5.765625 -6.453125 C 6.191406 -6.453125 6.691406 -6.453125 7.265625 -6.453125 C 7.835938 -6.453125 8.335938 -6.453125 8.765625 -6.453125 C 9.191406 -6.453125 9.40625 -6.453125 9.40625 -6.453125 C 9.40625 -6.453125 9.359375 -6.335938 9.265625 -6.109375 C 9.171875 -5.890625 9.054688 -5.640625 8.921875 -5.359375 C 8.785156 -5.078125 8.664062 -4.828125 8.5625 -4.609375 C 8.46875 -4.390625 8.421875 -4.28125 8.421875 -4.28125 Z M 28.5625 -10.734375 C 28.5625 -10.734375 28.644531 -10.910156 28.8125 -11.265625 C 28.988281 -11.617188 29.15625 -11.972656 29.3125 -12.328125 C 29.46875 -12.679688 29.546875 -12.859375 29.546875 -12.859375 C 29.546875 -12.859375 29.726562 -12.859375 30.09375 -12.859375 C 30.46875 -12.859375 30.832031 -12.859375 31.1875 -12.859375 C 31.539062 -12.859375 31.71875 -12.859375 31.71875 -12.859375 C 31.71875 -12.859375 31.632812 -12.679688 31.46875 -12.328125 C 31.3125 -11.972656 31.144531 -11.617188 30.96875 -11.265625 C 30.800781 -10.910156 30.71875 -10.734375 30.71875 -10.734375 C 30.71875 -10.734375 30.929688 -10.734375 31.359375 -10.734375 C 31.785156 -10.734375 32.320312 -10.734375 32.96875 -10.734375 C 33.625 -10.734375 34.269531 -10.734375 34.90625 -10.734375 C 35.539062 -10.734375 36.070312 -10.734375 36.5 -10.734375 C 36.925781 -10.734375 37.140625 -10.734375 37.140625 -10.734375 C 37.140625 -10.734375 37.222656 -10.910156 37.390625 -11.265625 C 37.554688 -11.617188 37.71875 -11.972656 37.875 -12.328125 C 38.039062 -12.679688 38.125 -12.859375 38.125 -12.859375 C 38.125 -12.859375 37.910156 -12.859375 37.484375 -12.859375 C 37.054688 -12.859375 36.554688 -12.859375 35.984375 -12.859375 C 35.410156 -12.859375 34.910156 -12.859375 34.484375 -12.859375 C 34.054688 -12.859375 33.84375 -12.859375 33.84375 -12.859375 C 33.84375 -12.859375 33.890625 -12.96875 33.984375 -13.1875 C 34.078125 -13.40625 34.195312 -13.65625 34.34375 -13.9375 C 34.5 -14.21875 34.625 -14.46875 34.71875 -14.6875 C 34.8125 -14.90625 34.859375 -15.015625 34.859375 -15.015625 C 34.859375 -15.015625 34.679688 -15.015625 34.328125 -15.015625 C 33.972656 -15.015625 33.613281 -15.015625 33.25 -15.015625 C 32.882812 -15.015625 32.703125 -15.015625 32.703125 -15.015625 C 32.703125 -15.015625 32.785156 -15.191406 32.953125 -15.546875 C 33.128906 -15.898438 33.296875 -16.253906 33.453125 -16.609375 C 33.609375 -16.960938 33.6875 -17.140625 33.6875 -17.140625 C 33.6875 -17.140625 33.867188 -17.140625 34.234375 -17.140625 C 34.609375 -17.140625 34.972656 -17.140625 35.328125 -17.140625 C 35.679688 -17.140625 35.859375 -17.140625 35.859375 -17.140625 C 35.859375 -17.140625 35.773438 -16.960938 35.609375 -16.609375 C 35.453125 -16.253906 35.285156 -15.898438 35.109375 -15.546875 C 34.941406 -15.191406 34.859375 -15.015625 34.859375 -15.015625 C 34.859375 -15.015625 35.070312 -15.015625 35.5 -15.015625 C 35.925781 -15.015625 36.425781 -15.015625 37 -15.015625 C 37.570312 -15.015625 38.070312 -15.015625 38.5 -15.015625 C 38.925781 -15.015625 39.140625 -15.015625 39.140625 -15.015625 C 39.140625 -15.015625 39.238281 -15.226562 39.4375 -15.65625 C 39.632812 -16.082031 39.867188 -16.582031 40.140625 -17.15625 C 40.410156 -17.726562 40.640625 -18.226562 40.828125 -18.65625 C 41.023438 -19.082031 41.125 -19.296875 41.125 -19.296875 C 41.125 -19.296875 40.910156 -19.296875 40.484375 -19.296875 C 40.054688 -19.296875 39.523438 -19.296875 38.890625 -19.296875 C 38.253906 -19.296875 37.613281 -19.296875 36.96875 -19.296875 C 36.320312 -19.296875 35.785156 -19.296875 35.359375 -19.296875 C 34.929688 -19.296875 34.71875 -19.296875 34.71875 -19.296875 C 34.71875 -19.296875 34.664062 -19.1875 34.5625 -18.96875 C 34.46875 -18.75 34.347656 -18.5 34.203125 -18.21875 C 34.054688 -17.9375 33.929688 -17.6875 33.828125 -17.46875 C 33.734375 -17.25 33.6875 -17.140625 33.6875 -17.140625 C 33.6875 -17.140625 33.472656 -17.140625 33.046875 -17.140625 C 32.617188 -17.140625 32.117188 -17.140625 31.546875 -17.140625 C 30.972656 -17.140625 30.472656 -17.140625 30.046875 -17.140625 C 29.617188 -17.140625 29.40625 -17.140625 29.40625 -17.140625 C 29.40625 -17.140625 29.304688 -16.925781 29.109375 -16.5 C 28.921875 -16.070312 28.675781 -15.539062 28.375 -14.90625 C 28.082031 -14.269531 27.785156 -13.628906 27.484375 -12.984375 C 27.179688 -12.335938 26.929688 -11.800781 26.734375 -11.375 C 26.535156 -10.945312 26.4375 -10.734375 26.4375 -10.734375 C 26.4375 -10.734375 26.613281 -10.734375 26.96875 -10.734375 C 27.320312 -10.734375 27.675781 -10.734375 28.03125 -10.734375 C 28.382812 -10.734375 28.5625 -10.734375 28.5625 -10.734375 Z M 25.703125 -32.15625 C 25.703125 -32.15625 25.878906 -32.15625 26.234375 -32.15625 C 26.585938 -32.15625 26.941406 -32.15625 27.296875 -32.15625 C 27.648438 -32.15625 27.828125 -32.15625 27.828125 -32.15625 C 27.828125 -32.15625 27.929688 -32.367188 28.140625 -32.796875 C 28.347656 -33.222656 28.578125 -33.722656 28.828125 -34.296875 C 29.085938 -34.867188 29.320312 -35.367188 29.53125 -35.796875 C 29.738281 -36.222656 29.84375 -36.4375 29.84375 -36.4375 C 29.84375 -36.4375 29.664062 -36.4375 29.3125 -36.4375 C 28.957031 -36.4375 28.597656 -36.4375 28.234375 -36.4375 C 27.867188 -36.4375 27.6875 -36.4375 27.6875 -36.4375 C 27.6875 -36.4375 27.585938 -36.222656 27.390625 -35.796875 C 27.191406 -35.367188 26.957031 -34.867188 26.6875 -34.296875 C 26.425781 -33.722656 26.195312 -33.222656 26 -32.796875 C 25.800781 -32.367188 25.703125 -32.15625 25.703125 -32.15625 Z M 29.703125 -40.71875 C 29.703125 -40.71875 29.882812 -40.71875 30.25 -40.71875 C 30.613281 -40.71875 30.972656 -40.71875 31.328125 -40.71875 C 31.679688 -40.71875 31.859375 -40.71875 31.859375 -40.71875 C 31.859375 -40.71875 31.941406 -40.894531 32.109375 -41.25 C 32.285156 -41.601562 32.453125 -41.957031 32.609375 -42.3125 C 32.765625 -42.664062 32.84375 -42.84375 32.84375 -42.84375 C 32.84375 -42.84375 32.664062 -42.84375 32.3125 -42.84375 C 31.957031 -42.84375 31.597656 -42.84375 31.234375 -42.84375 C 30.867188 -42.84375 30.6875 -42.84375 30.6875 -42.84375 C 30.6875 -42.84375 30.609375 -42.664062 30.453125 -42.3125 C 30.296875 -41.957031 30.128906 -41.601562 29.953125 -41.25 C 29.785156 -40.894531 29.703125 -40.71875 29.703125 -40.71875 Z M 31.96875 -36.4375 C 31.96875 -36.4375 32.148438 -36.4375 32.515625 -36.4375 C 32.878906 -36.4375 33.238281 -36.4375 33.59375 -36.4375 C 33.945312 -36.4375 34.125 -36.4375 34.125 -36.4375 C 34.125 -36.4375 34.207031 -36.613281 34.375 -36.96875 C 34.550781 -37.320312 34.71875 -37.675781 34.875 -38.03125 C 35.039062 -38.382812 35.125 -38.5625 35.125 -38.5625 C 35.125 -38.5625 35.304688 -38.5625 35.671875 -38.5625 C 36.035156 -38.5625 36.394531 -38.5625 36.75 -38.5625 C 37.101562 -38.5625 37.28125 -38.5625 37.28125 -38.5625 C 37.28125 -38.5625 37.328125 -38.671875 37.421875 -38.890625 C 37.523438 -39.109375 37.640625 -39.359375 37.765625 -39.640625 C 37.898438 -39.921875 38.015625 -40.171875 38.109375 -40.390625 C 38.210938 -40.609375 38.265625 -40.71875 38.265625 -40.71875 C 38.265625 -40.71875 38.050781 -40.71875 37.625 -40.71875 C 37.195312 -40.71875 36.695312 -40.71875 36.125 -40.71875 C 35.550781 -40.71875 35.050781 -40.71875 34.625 -40.71875 C 34.195312 -40.71875 33.984375 -40.71875 33.984375 -40.71875 C 33.984375 -40.71875 33.878906 -40.503906 33.671875 -40.078125 C 33.460938 -39.648438 33.226562 -39.148438 32.96875 -38.578125 C 32.71875 -38.003906 32.488281 -37.503906 32.28125 -37.078125 C 32.070312 -36.648438 31.96875 -36.4375 31.96875 -36.4375 Z M 35.265625 -34.28125 C 35.265625 -34.28125 35.085938 -34.28125 34.734375 -34.28125 C 34.378906 -34.28125 34.023438 -34.28125 33.671875 -34.28125 C 33.316406 -34.28125 33.140625 -34.28125 33.140625 -34.28125 C 33.140625 -34.28125 33.085938 -34.171875 32.984375 -33.953125 C 32.890625 -33.734375 32.769531 -33.488281 32.625 -33.21875 C 32.476562 -32.945312 32.351562 -32.703125 32.25 -32.484375 C 32.15625 -32.265625 32.109375 -32.15625 32.109375 -32.15625 C 32.109375 -32.15625 32.289062 -32.15625 32.65625 -32.15625 C 33.03125 -32.15625 33.394531 -32.15625 33.75 -32.15625 C 34.101562 -32.15625 34.28125 -32.15625 34.28125 -32.15625 C 34.28125 -32.15625 34.363281 -32.332031 34.53125 -32.6875 C 34.707031 -33.039062 34.875 -33.394531 35.03125 -33.75 C 35.1875 -34.101562 35.265625 -34.28125 35.265625 -34.28125 Z M 37.421875 -34.28125 C 37.421875 -34.28125 37.519531 -34.492188 37.71875 -34.921875 C 37.914062 -35.347656 38.144531 -35.847656 38.40625 -36.421875 C 38.675781 -36.992188 38.910156 -37.492188 39.109375 -37.921875 C 39.304688 -38.347656 39.40625 -38.5625 39.40625 -38.5625 C 39.40625 -38.5625 39.226562 -38.5625 38.875 -38.5625 C 38.519531 -38.5625 38.164062 -38.5625 37.8125 -38.5625 C 37.457031 -38.5625 37.28125 -38.5625 37.28125 -38.5625 C 37.28125 -38.5625 37.175781 -38.347656 36.96875 -37.921875 C 36.757812 -37.492188 36.523438 -36.992188 36.265625 -36.421875 C 36.015625 -35.847656 35.785156 -35.347656 35.578125 -34.921875 C 35.367188 -34.492188 35.265625 -34.28125 35.265625 -34.28125 C 35.265625 -34.28125 35.445312 -34.28125 35.8125 -34.28125 C 36.175781 -34.28125 36.535156 -34.28125 36.890625 -34.28125 C 37.242188 -34.28125 37.421875 -34.28125 37.421875 -34.28125 Z M 47.125 -32.15625 C 47.125 -32.15625 47.335938 -32.15625 47.765625 -32.15625 C 48.191406 -32.15625 48.691406 -32.15625 49.265625 -32.15625 C 49.847656 -32.15625 50.351562 -32.15625 50.78125 -32.15625 C 51.207031 -32.15625 51.421875 -32.15625 51.421875 -32.15625 C 51.421875 -32.15625 51.503906 -32.332031 51.671875 -32.6875 C 51.835938 -33.039062 52 -33.394531 52.15625 -33.75 C 52.320312 -34.101562 52.40625 -34.28125 52.40625 -34.28125 C 52.40625 -34.28125 52.191406 -34.28125 51.765625 -34.28125 C 51.335938 -34.28125 50.835938 -34.28125 50.265625 -34.28125 C 49.691406 -34.28125 49.191406 -34.28125 48.765625 -34.28125 C 48.335938 -34.28125 48.125 -34.28125 48.125 -34.28125 C 48.125 -34.28125 48.039062 -34.101562 47.875 -33.75 C 47.71875 -33.394531 47.550781 -33.039062 47.375 -32.6875 C 47.207031 -32.332031 47.125 -32.15625 47.125 -32.15625 Z M 54.5625 -34.28125 C 54.5625 -34.28125 54.484375 -34.101562 54.328125 -33.75 C 54.171875 -33.394531 54.003906 -33.039062 53.828125 -32.6875 C 53.660156 -32.332031 53.578125 -32.15625 53.578125 -32.15625 C 53.578125 -32.15625 53.753906 -32.15625 54.109375 -32.15625 C 54.460938 -32.15625 54.816406 -32.15625 55.171875 -32.15625 C 55.523438 -32.15625 55.703125 -32.15625 55.703125 -32.15625 C 55.703125 -32.15625 55.785156 -32.332031 55.953125 -32.6875 C 56.128906 -33.039062 56.296875 -33.394531 56.453125 -33.75 C 56.609375 -34.101562 56.6875 -34.28125 56.6875 -34.28125 C 56.6875 -34.28125 56.507812 -34.28125 56.15625 -34.28125 C 55.800781 -34.28125 55.445312 -34.28125 55.09375 -34.28125 C 54.738281 -34.28125 54.5625 -34.28125 54.5625 -34.28125 Z M 55.546875 -36.4375 C 55.546875 -36.4375 55.367188 -36.4375 55.015625 -36.4375 C 54.671875 -36.4375 54.320312 -36.4375 53.96875 -36.4375 C 53.613281 -36.4375 53.4375 -36.4375 53.4375 -36.4375 C 53.4375 -36.4375 53.382812 -36.328125 53.28125 -36.109375 C 53.1875 -35.890625 53.066406 -35.640625 52.921875 -35.359375 C 52.773438 -35.078125 52.648438 -34.828125 52.546875 -34.609375 C 52.453125 -34.390625 52.40625 -34.28125 52.40625 -34.28125 C 52.40625 -34.28125 52.585938 -34.28125 52.953125 -34.28125 C 53.316406 -34.28125 53.675781 -34.28125 54.03125 -34.28125 C 54.382812 -34.28125 54.5625 -34.28125 54.5625 -34.28125 C 54.5625 -34.28125 54.609375 -34.390625 54.703125 -34.609375 C 54.804688 -34.828125 54.925781 -35.078125 55.0625 -35.359375 C 55.195312 -35.640625 55.3125 -35.890625 55.40625 -36.109375 C 55.5 -36.328125 55.546875 -36.4375 55.546875 -36.4375 Z M 49.140625 -36.4375 C 49.140625 -36.4375 49.316406 -36.4375 49.671875 -36.4375 C 50.023438 -36.4375 50.378906 -36.4375 50.734375 -36.4375 C 51.085938 -36.4375 51.265625 -36.4375 51.265625 -36.4375 C 51.265625 -36.4375 51.347656 -36.613281 51.515625 -36.96875 C 51.691406 -37.320312 51.859375 -37.675781 52.015625 -38.03125 C 52.179688 -38.382812 52.265625 -38.5625 52.265625 -38.5625 C 52.265625 -38.5625 52.085938 -38.5625 51.734375 -38.5625 C 51.378906 -38.5625 51.023438 -38.5625 50.671875 -38.5625 C 50.316406 -38.5625 50.140625 -38.5625 50.140625 -38.5625 C 50.140625 -38.5625 50.054688 -38.382812 49.890625 -38.03125 C 49.734375 -37.675781 49.566406 -37.320312 49.390625 -36.96875 C 49.222656 -36.613281 49.140625 -36.4375 49.140625 -36.4375 Z M 46.40625 -53.578125 C 46.40625 -53.578125 46.585938 -53.578125 46.953125 -53.578125 C 47.316406 -53.578125 47.675781 -53.578125 48.03125 -53.578125 C 48.382812 -53.578125 48.5625 -53.578125 48.5625 -53.578125 C 48.5625 -53.578125 48.65625 -53.789062 48.84375 -54.21875 C 49.039062 -54.644531 49.273438 -55.144531 49.546875 -55.71875 C 49.816406 -56.289062 50.046875 -56.789062 50.234375 -57.21875 C 50.429688 -57.644531 50.53125 -57.859375 50.53125 -57.859375 C 50.53125 -57.859375 50.351562 -57.859375 50 -57.859375 C 49.644531 -57.859375 49.289062 -57.859375 48.9375 -57.859375 C 48.582031 -57.859375 48.40625 -57.859375 48.40625 -57.859375 C 48.40625 -57.859375 48.300781 -57.644531 48.09375 -57.21875 C 47.894531 -56.789062 47.664062 -56.289062 47.40625 -55.71875 C 47.144531 -55.144531 46.910156 -54.644531 46.703125 -54.21875 C 46.503906 -53.789062 46.40625 -53.578125 46.40625 -53.578125 Z M 52.703125 -57.859375 C 52.703125 -57.859375 52.785156 -58.035156 52.953125 -58.390625 C 53.117188 -58.742188 53.28125 -59.097656 53.4375 -59.453125 C 53.601562 -59.804688 53.6875 -59.984375 53.6875 -59.984375 C 53.6875 -59.984375 53.507812 -59.984375 53.15625 -59.984375 C 52.800781 -59.984375 52.445312 -59.984375 52.09375 -59.984375 C 51.738281 -59.984375 51.5625 -59.984375 51.5625 -59.984375 C 51.5625 -59.984375 51.507812 -59.875 51.40625 -59.65625 C 51.3125 -59.4375 51.191406 -59.191406 51.046875 -58.921875 C 50.898438 -58.648438 50.773438 -58.40625 50.671875 -58.1875 C 50.578125 -57.96875 50.53125 -57.859375 50.53125 -57.859375 C 50.53125 -57.859375 50.710938 -57.859375 51.078125 -57.859375 C 51.453125 -57.859375 51.816406 -57.859375 52.171875 -57.859375 C 52.523438 -57.859375 52.703125 -57.859375 52.703125 -57.859375 Z M 50.6875 -53.578125 C 50.6875 -53.578125 50.898438 -53.578125 51.328125 -53.578125 C 51.753906 -53.578125 52.253906 -53.578125 52.828125 -53.578125 C 53.398438 -53.578125 53.898438 -53.578125 54.328125 -53.578125 C 54.753906 -53.578125 54.96875 -53.578125 54.96875 -53.578125 C 54.96875 -53.578125 55.015625 -53.6875 55.109375 -53.90625 C 55.210938 -54.125 55.335938 -54.367188 55.484375 -54.640625 C 55.628906 -54.910156 55.75 -55.15625 55.84375 -55.375 C 55.945312 -55.59375 56 -55.703125 56 -55.703125 C 56 -55.703125 55.785156 -55.703125 55.359375 -55.703125 C 54.929688 -55.703125 54.425781 -55.703125 53.84375 -55.703125 C 53.269531 -55.703125 52.769531 -55.703125 52.34375 -55.703125 C 51.914062 -55.703125 51.703125 -55.703125 51.703125 -55.703125 C 51.703125 -55.703125 51.65625 -55.59375 51.5625 -55.375 C 51.46875 -55.15625 51.347656 -54.910156 51.203125 -54.640625 C 51.054688 -54.367188 50.929688 -54.125 50.828125 -53.90625 C 50.734375 -53.6875 50.6875 -53.578125 50.6875 -53.578125 Z M 58.125 -55.703125 C 58.125 -55.703125 58.171875 -55.8125 58.265625 -56.03125 C 58.359375 -56.25 58.472656 -56.5 58.609375 -56.78125 C 58.742188 -57.0625 58.859375 -57.3125 58.953125 -57.53125 C 59.054688 -57.75 59.109375 -57.859375 59.109375 -57.859375 C 59.109375 -57.859375 58.929688 -57.859375 58.578125 -57.859375 C 58.222656 -57.859375 57.867188 -57.859375 57.515625 -57.859375 C 57.160156 -57.859375 56.984375 -57.859375 56.984375 -57.859375 C 56.984375 -57.859375 56.929688 -57.75 56.828125 -57.53125 C 56.734375 -57.3125 56.617188 -57.0625 56.484375 -56.78125 C 56.347656 -56.5 56.234375 -56.25 56.140625 -56.03125 C 56.046875 -55.8125 56 -55.703125 56 -55.703125 C 56 -55.703125 56.175781 -55.703125 56.53125 -55.703125 C 56.882812 -55.703125 57.238281 -55.703125 57.59375 -55.703125 C 57.945312 -55.703125 58.125 -55.703125 58.125 -55.703125 Z M 56.984375 -57.859375 C 56.984375 -57.859375 57.066406 -58.035156 57.234375 -58.390625 C 57.410156 -58.742188 57.578125 -59.097656 57.734375 -59.453125 C 57.890625 -59.804688 57.96875 -59.984375 57.96875 -59.984375 C 57.96875 -59.984375 57.789062 -59.984375 57.4375 -59.984375 C 57.082031 -59.984375 56.726562 -59.984375 56.375 -59.984375 C 56.019531 -59.984375 55.84375 -59.984375 55.84375 -59.984375 C 55.84375 -59.984375 55.789062 -59.875 55.6875 -59.65625 C 55.59375 -59.4375 55.472656 -59.191406 55.328125 -58.921875 C 55.179688 -58.648438 55.0625 -58.40625 54.96875 -58.1875 C 54.875 -57.96875 54.828125 -57.859375 54.828125 -57.859375 C 54.828125 -57.859375 55.007812 -57.859375 55.375 -57.859375 C 55.738281 -57.859375 56.097656 -57.859375 56.453125 -57.859375 C 56.804688 -57.859375 56.984375 -57.859375 56.984375 -57.859375 Z M 50.390625 -62.140625 C 50.390625 -62.140625 50.609375 -62.140625 51.046875 -62.140625 C 51.484375 -62.140625 52.019531 -62.140625 52.65625 -62.140625 C 53.289062 -62.140625 53.925781 -62.140625 54.5625 -62.140625 C 55.195312 -62.140625 55.734375 -62.140625 56.171875 -62.140625 C 56.617188 -62.140625 56.84375 -62.140625 56.84375 -62.140625 C 56.84375 -62.140625 56.925781 -62.316406 57.09375 -62.671875 C 57.257812 -63.023438 57.421875 -63.378906 57.578125 -63.734375 C 57.742188 -64.085938 57.828125 -64.265625 57.828125 -64.265625 C 57.828125 -64.265625 57.613281 -64.265625 57.1875 -64.265625 C 56.757812 -64.265625 56.222656 -64.265625 55.578125 -64.265625 C 54.929688 -64.265625 54.289062 -64.265625 53.65625 -64.265625 C 53.019531 -64.265625 52.488281 -64.265625 52.0625 -64.265625 C 51.632812 -64.265625 51.421875 -64.265625 51.421875 -64.265625 C 51.421875 -64.265625 51.367188 -64.15625 51.265625 -63.9375 C 51.171875 -63.71875 51.050781 -63.472656 50.90625 -63.203125 C 50.757812 -62.941406 50.632812 -62.695312 50.53125 -62.46875 C 50.4375 -62.25 50.390625 -62.140625 50.390625 -62.140625 Z M 58.953125 -62.140625 C 58.953125 -62.140625 59.132812 -62.140625 59.5 -62.140625 C 59.875 -62.140625 60.238281 -62.140625 60.59375 -62.140625 C 60.945312 -62.140625 61.125 -62.140625 61.125 -62.140625 C 61.125 -62.140625 61.207031 -62.316406 61.375 -62.671875 C 61.550781 -63.023438 61.71875 -63.378906 61.875 -63.734375 C 62.03125 -64.085938 62.109375 -64.265625 62.109375 -64.265625 C 62.109375 -64.265625 61.929688 -64.265625 61.578125 -64.265625 C 61.222656 -64.265625 60.867188 -64.265625 60.515625 -64.265625 C 60.160156 -64.265625 59.984375 -64.265625 59.984375 -64.265625 C 59.984375 -64.265625 59.929688 -64.15625 59.828125 -63.9375 C 59.734375 -63.71875 59.613281 -63.472656 59.46875 -63.203125 C 59.320312 -62.941406 59.195312 -62.695312 59.09375 -62.46875 C 59 -62.25 58.953125 -62.140625 58.953125 -62.140625 Z M 88.546875 -75 C 88.546875 -75 88.492188 -74.890625 88.390625 -74.671875 C 88.296875 -74.453125 88.179688 -74.203125 88.046875 -73.921875 C 87.921875 -73.640625 87.804688 -73.390625 87.703125 -73.171875 C 87.609375 -72.953125 87.5625 -72.84375 87.5625 -72.84375 C 87.5625 -72.84375 87.738281 -72.84375 88.09375 -72.84375 C 88.445312 -72.84375 88.800781 -72.84375 89.15625 -72.84375 C 89.507812 -72.84375 89.6875 -72.84375 89.6875 -72.84375 C 89.6875 -72.84375 89.601562 -72.664062 89.4375 -72.3125 C 89.28125 -71.957031 89.117188 -71.601562 88.953125 -71.25 C 88.785156 -70.894531 88.703125 -70.71875 88.703125 -70.71875 C 88.703125 -70.71875 88.878906 -70.71875 89.234375 -70.71875 C 89.585938 -70.71875 89.941406 -70.71875 90.296875 -70.71875 C 90.648438 -70.71875 90.828125 -70.71875 90.828125 -70.71875 C 90.828125 -70.71875 90.925781 -70.929688 91.125 -71.359375 C 91.332031 -71.785156 91.566406 -72.285156 91.828125 -72.859375 C 92.085938 -73.429688 92.316406 -73.929688 92.515625 -74.359375 C 92.722656 -74.785156 92.828125 -75 92.828125 -75 C 92.828125 -75 92.613281 -75 92.1875 -75 C 91.757812 -75 91.257812 -75 90.6875 -75 C 90.113281 -75 89.613281 -75 89.1875 -75 C 88.757812 -75 88.546875 -75 88.546875 -75 Z M 88.84375 -66.4375 C 88.84375 -66.4375 88.664062 -66.4375 88.3125 -66.4375 C 87.957031 -66.4375 87.597656 -66.4375 87.234375 -66.4375 C 86.867188 -66.4375 86.6875 -66.4375 86.6875 -66.4375 C 86.6875 -66.4375 86.632812 -66.320312 86.53125 -66.09375 C 86.4375 -65.875 86.320312 -65.625 86.1875 -65.34375 C 86.050781 -65.0625 85.929688 -64.8125 85.828125 -64.59375 C 85.734375 -64.375 85.6875 -64.265625 85.6875 -64.265625 C 85.6875 -64.265625 85.863281 -64.265625 86.21875 -64.265625 C 86.570312 -64.265625 86.925781 -64.265625 87.28125 -64.265625 C 87.632812 -64.265625 87.8125 -64.265625 87.8125 -64.265625 C 87.8125 -64.265625 87.859375 -64.375 87.953125 -64.59375 C 88.054688 -64.8125 88.179688 -65.0625 88.328125 -65.34375 C 88.472656 -65.625 88.59375 -65.875 88.6875 -66.09375 C 88.789062 -66.320312 88.84375 -66.4375 88.84375 -66.4375 Z M 87.703125 -68.5625 C 87.703125 -68.5625 87.523438 -68.5625 87.171875 -68.5625 C 86.816406 -68.5625 86.457031 -68.5625 86.09375 -68.5625 C 85.726562 -68.5625 85.546875 -68.5625 85.546875 -68.5625 C 85.546875 -68.5625 85.46875 -68.382812 85.3125 -68.03125 C 85.15625 -67.675781 84.988281 -67.320312 84.8125 -66.96875 C 84.644531 -66.613281 84.5625 -66.4375 84.5625 -66.4375 C 84.5625 -66.4375 84.738281 -66.4375 85.09375 -66.4375 C 85.445312 -66.4375 85.800781 -66.4375 86.15625 -66.4375 C 86.507812 -66.4375 86.6875 -66.4375 86.6875 -66.4375 C 86.6875 -66.4375 86.734375 -66.546875 86.828125 -66.765625 C 86.921875 -66.984375 87.039062 -67.222656 87.1875 -67.484375 C 87.34375 -67.753906 87.46875 -68 87.5625 -68.21875 C 87.65625 -68.445312 87.703125 -68.5625 87.703125 -68.5625 Z M 90.96875 -66.4375 C 90.96875 -66.4375 91.070312 -66.648438 91.28125 -67.078125 C 91.488281 -67.503906 91.71875 -68.003906 91.96875 -68.578125 C 92.226562 -69.148438 92.460938 -69.648438 92.671875 -70.078125 C 92.878906 -70.503906 92.984375 -70.71875 92.984375 -70.71875 C 92.984375 -70.71875 92.804688 -70.71875 92.453125 -70.71875 C 92.097656 -70.71875 91.738281 -70.71875 91.375 -70.71875 C 91.007812 -70.71875 90.828125 -70.71875 90.828125 -70.71875 C 90.828125 -70.71875 90.726562 -70.503906 90.53125 -70.078125 C 90.332031 -69.648438 90.097656 -69.148438 89.828125 -68.578125 C 89.554688 -68.003906 89.320312 -67.503906 89.125 -67.078125 C 88.9375 -66.648438 88.84375 -66.4375 88.84375 -66.4375 C 88.84375 -66.4375 89.019531 -66.4375 89.375 -66.4375 C 89.726562 -66.4375 90.082031 -66.4375 90.4375 -66.4375 C 90.789062 -66.4375 90.96875 -66.4375 90.96875 -66.4375 Z M 92.984375 -70.71875 C 92.984375 -70.71875 93.160156 -70.71875 93.515625 -70.71875 C 93.867188 -70.71875 94.222656 -70.71875 94.578125 -70.71875 C 94.929688 -70.71875 95.109375 -70.71875 95.109375 -70.71875 C 95.109375 -70.71875 95.003906 -70.492188 94.796875 -70.046875 C 94.585938 -69.609375 94.335938 -69.070312 94.046875 -68.4375 C 93.753906 -67.8125 93.457031 -67.179688 93.15625 -66.546875 C 92.863281 -65.910156 92.613281 -65.367188 92.40625 -64.921875 C 92.207031 -64.484375 92.109375 -64.265625 92.109375 -64.265625 C 92.109375 -64.265625 92.289062 -64.265625 92.65625 -64.265625 C 93.019531 -64.265625 93.378906 -64.265625 93.734375 -64.265625 C 94.085938 -64.265625 94.265625 -64.265625 94.265625 -64.265625 C 94.265625 -64.265625 94.382812 -64.519531 94.625 -65.03125 C 94.875 -65.550781 95.1875 -66.21875 95.5625 -67.03125 C 95.9375 -67.851562 96.332031 -68.722656 96.75 -69.640625 C 97.164062 -70.554688 97.5625 -71.421875 97.9375 -72.234375 C 98.320312 -73.054688 98.632812 -73.722656 98.875 -74.234375 C 99.125 -74.742188 99.25 -75 99.25 -75 C 99.25 -75 99.070312 -75 98.71875 -75 C 98.363281 -75 98.007812 -75 97.65625 -75 C 97.300781 -75 97.125 -75 97.125 -75 C 97.125 -75 97.070312 -74.890625 96.96875 -74.671875 C 96.875 -74.453125 96.757812 -74.203125 96.625 -73.921875 C 96.488281 -73.640625 96.367188 -73.390625 96.265625 -73.171875 C 96.171875 -72.953125 96.125 -72.84375 96.125 -72.84375 C 96.125 -72.84375 95.945312 -72.84375 95.59375 -72.84375 C 95.238281 -72.84375 94.878906 -72.84375 94.515625 -72.84375 C 94.148438 -72.84375 93.96875 -72.84375 93.96875 -72.84375 C 93.96875 -72.84375 93.890625 -72.664062 93.734375 -72.3125 C 93.578125 -71.957031 93.410156 -71.601562 93.234375 -71.25 C 93.066406 -70.894531 92.984375 -70.71875 92.984375 -70.71875 Z M 92.984375 -70.71875 "/></g></g></g></svg>