<svg xmlns="http://www.w3.org/2000/svg" xmlns:xlink="http://www.w3.org/1999/xlink" width="500" zoomAndPan="magnify" viewBox="0 0 375 374.999991" height="500" preserveAspectRatio="xMidYMid meet" version="1.0"><defs><clipPath id="032db287ed"><path d="M 0 0 L 274.5 0 L 274.5 375 L 0 375 Z M 0 0 " clip-rule="nonzero"/></clipPath><clipPath id="00d0c9c9a7"><path d="M 137 150 L 268.726562 150 L 268.726562 225 L 137 225 Z M 137 150 " clip-rule="nonzero"/></clipPath><clipPath id="8fe44273a0"><path d="M 105.976562 150 L 205 150 L 205 225 L 105.976562 225 Z M 105.976562 150 " clip-rule="nonzero"/></clipPath></defs><rect x="-37.5" width="450" fill="#ffffff" y="-37.499999" height="449.999989" fill-opacity="1"/><rect x="-37.5" width="450" fill="#191919" y="-37.499999" height="449.999989" fill-opacity="1"/><g clip-path="url(#032db287ed)"><path fill="#990000" d="M 0 0.109375 L 274.5 0.109375 L 99.910156 374.890625 L 0 374.890625 Z M 0 0.109375 " fill-opacity="1" fill-rule="nonzero"/></g><g clip-path="url(#00d0c9c9a7)"><path fill="#f5f5f5" d="M 137.964844 224.886719 L 142.9375 214.203125 L 153.597656 214.203125 L 158.570312 203.523438 L 216.148438 203.523438 L 217.140625 201.386719 L 219.273438 201.386719 L 220.269531 199.25 L 224.53125 199.25 L 225.527344 197.113281 L 221.261719 197.113281 L 222.257812 194.976562 L 220.125 194.976562 L 221.117188 192.839844 L 184.867188 192.839844 L 185.863281 190.703125 L 181.597656 190.703125 L 182.589844 188.566406 L 178.324219 188.566406 L 179.320312 186.433594 L 175.054688 186.433594 L 176.050781 184.296875 L 171.785156 184.296875 L 172.78125 182.160156 L 168.515625 182.160156 L 173.488281 171.476562 L 205.472656 171.476562 L 210.445312 160.796875 L 221.105469 160.796875 L 226.078125 150.113281 L 268.726562 150.113281 L 263.757812 160.796875 L 261.625 160.796875 L 260.628906 162.933594 L 258.496094 162.933594 L 257.503906 165.070312 L 255.371094 165.070312 L 254.375 167.207031 L 252.242188 167.207031 L 251.25 169.339844 L 249.117188 169.339844 L 248.121094 171.476562 L 211.871094 171.476562 L 210.875 173.613281 L 208.742188 173.613281 L 207.75 175.75 L 203.484375 175.75 L 202.488281 177.886719 L 206.753906 177.886719 L 205.761719 180.023438 L 207.894531 180.023438 L 206.898438 182.160156 L 243.148438 182.160156 L 242.15625 184.296875 L 244.289062 184.296875 L 243.292969 186.433594 L 245.425781 186.433594 L 244.433594 188.566406 L 246.5625 188.566406 L 245.570312 190.703125 L 247.703125 190.703125 L 246.707031 192.839844 L 248.839844 192.839844 L 238.898438 214.203125 L 234.632812 214.203125 L 233.636719 216.339844 L 229.371094 216.339844 L 228.378906 218.476562 L 224.113281 218.476562 L 223.117188 220.613281 L 218.855469 220.613281 L 217.859375 222.75 L 213.59375 222.75 L 212.601562 224.886719 Z M 137.964844 224.886719 " fill-opacity="1" fill-rule="nonzero"/></g><g clip-path="url(#8fe44273a0)"><path fill="#f5f5f5" d="M 105.976562 224.886719 L 110.949219 214.203125 L 119.480469 214.203125 L 118.484375 216.339844 L 120.617188 216.339844 L 116.640625 224.886719 L 112.375 224.886719 L 115.359375 218.476562 L 111.09375 218.476562 L 110.097656 220.613281 L 114.363281 220.613281 L 112.375 224.886719 Z M 132.273438 214.203125 L 135.257812 207.792969 L 139.523438 207.792969 L 140.515625 205.660156 L 146.914062 205.660156 L 144.925781 209.929688 L 140.660156 209.929688 L 141.65625 207.792969 L 139.523438 207.792969 L 138.527344 209.929688 L 140.660156 209.929688 L 139.667969 212.066406 L 143.929688 212.066406 L 142.9375 214.203125 L 136.539062 214.203125 L 137.535156 212.066406 L 135.402344 212.066406 L 134.40625 214.203125 Z M 131.554688 192.839844 L 133.542969 188.566406 L 135.675781 188.566406 L 133.6875 192.839844 Z M 135.535156 184.296875 L 136.527344 182.160156 L 138.660156 182.160156 L 137.664062 184.296875 Z M 137.808594 188.566406 L 139.796875 184.296875 L 144.0625 184.296875 L 140.085938 192.839844 L 137.953125 192.839844 L 138.949219 190.703125 L 143.210938 190.703125 L 145.203125 186.433594 L 140.9375 186.433594 L 139.941406 188.566406 Z M 152.878906 192.839844 L 153.875 190.703125 L 162.40625 190.703125 L 161.410156 192.839844 L 159.277344 192.839844 L 161.265625 188.566406 L 159.132812 188.566406 L 157.144531 192.839844 Z M 154.871094 188.566406 L 155.863281 186.433594 L 157.996094 186.433594 L 157 188.566406 Z M 152.160156 171.476562 L 154.152344 167.207031 L 158.414062 167.207031 L 159.410156 165.070312 L 157.277344 165.070312 L 154.292969 171.476562 Z M 156.425781 171.476562 L 157.421875 169.339844 L 163.820312 169.339844 L 164.8125 167.207031 L 160.546875 167.207031 L 161.542969 165.070312 L 163.675781 165.070312 L 160.691406 171.476562 Z M 156.140625 162.933594 L 157.132812 160.796875 L 163.53125 160.796875 L 162.535156 162.933594 Z M 164.667969 162.933594 L 165.664062 160.796875 L 167.796875 160.796875 L 166.800781 162.933594 Z M 194.09375 150.113281 L 198.355469 150.113281 L 193.386719 160.796875 L 191.253906 160.796875 L 193.242188 156.523438 L 191.109375 156.523438 L 190.113281 158.660156 L 196.511719 158.660156 L 199.496094 152.25 L 201.628906 152.25 L 202.621094 150.113281 L 204.753906 150.113281 L 199.78125 160.796875 L 197.648438 160.796875 L 200.632812 154.386719 L 194.234375 154.386719 L 195.230469 152.25 L 193.097656 152.25 Z M 194.09375 150.113281 " fill-opacity="1" fill-rule="nonzero"/></g></svg>